<svg width="28" height="28" viewBox="0 0 28 28" fill="none" xmlns="http://www.w3.org/2000/svg">
<path d="M19.5568 24.5C21.14 24.2108 22.3951 23.7701 22.9786 23.1779C23.0606 22.4291 22.9786 21.2487 22.9786 21.2487C22.9786 20.2254 22.498 19.244 21.6423 18.5204C18.9403 16.2353 9.908 16.2353 7.20598 18.5204C6.35037 19.244 5.86969 20.2254 5.86969 21.2487C5.86969 21.2487 5.78771 22.4291 5.86969 23.1779C6.45318 23.7701 7.70831 24.2108 9.29148 24.5M18.9865 8.1301C18.9865 10.6872 16.9439 12.7602 14.4242 12.7602C11.9044 12.7602 9.86177 10.6872 9.86177 8.1301C9.86177 5.57297 11.9044 3.5 14.4242 3.5C16.9439 3.5 18.9865 5.57297 18.9865 8.1301Z" stroke="#313131" stroke-width="1.5" stroke-linecap="round" stroke-linejoin="round"/>
</svg>
