<svg width="16" height="16" viewBox="0 0 16 16" fill="none" xmlns="http://www.w3.org/2000/svg">
<mask id="path-1-inside-1_301_398" fill="white">
<path d="M4 7L8 11L12 7"/>
</mask>
<path d="M4 7L8 11L12 7" fill="#313131"/>
<path d="M4.70711 6.29289C4.31658 5.90237 3.68342 5.90237 3.29289 6.29289C2.90237 6.68342 2.90237 7.31658 3.29289 7.70711L4.70711 6.29289ZM8 11L7.29289 11.7071C7.68342 12.0976 8.31658 12.0976 8.70711 11.7071L8 11ZM12.7071 7.70711C13.0976 7.31658 13.0976 6.68342 12.7071 6.29289C12.3166 5.90237 11.6834 5.90237 11.2929 6.29289L12.7071 7.70711ZM3.29289 7.70711L7.29289 11.7071L8.70711 10.2929L4.70711 6.29289L3.29289 7.70711ZM8.70711 11.7071L12.7071 7.70711L11.2929 6.29289L7.29289 10.2929L8.70711 11.7071Z" fill="#313131" mask="url(#path-1-inside-1_301_398)"/>
</svg>
