<svg width="78" height="76" viewBox="0 0 78 76" fill="none" xmlns="http://www.w3.org/2000/svg">
<path d="M13.6364 9.02888C18.9923 4.52159 26.026 1.41213 33.3098 0.331585C36.2425 -0.103454 41.4904 -0.111695 44.4528 0.31431C51.2841 1.29659 57.305 3.76705 62.8954 7.88145C64.9519 9.39497 68.8075 13.2274 70.3382 15.2795C75.3821 22.0414 78.0045 29.8008 78 37.9506C77.9939 48.9734 73.2749 59.1703 64.7568 66.5669C59.2696 71.3315 52.1229 74.5743 44.6037 75.7112C42.0393 76.0989 35.8396 76.0956 33.3334 75.7052C24.6 74.3446 17.0436 70.5745 11.0728 64.5983C5.0983 58.6187 1.34731 50.9963 0.238433 42.5824C-0.0726475 40.2214 -0.0806239 35.7872 0.222161 33.5064C1.51578 23.7632 6.12726 15.3483 13.6364 9.02888Z" fill="#313131"/>
<path fill-rule="evenodd" clip-rule="evenodd" d="M33.3097 0.3316C26.026 1.41214 18.9922 4.5216 13.6364 9.02889C6.12725 15.3483 1.51577 23.7632 0.222153 33.5065C-0.0806315 35.7872 -0.0726551 40.2214 0.238425 42.5824C1.34731 50.9963 5.09829 58.6187 11.0728 64.5984C17.0436 70.5745 24.6 74.3446 33.3334 75.7052C35.8395 76.0956 42.0393 76.0989 44.6037 75.7113C52.1229 74.5743 59.2696 71.3315 64.7568 66.5669C73.2749 59.1703 77.9939 48.9734 78 37.9507C78.0045 29.8008 75.3821 22.0414 70.3382 15.2795C68.8075 13.2275 64.9519 9.39499 62.8954 7.88147C57.305 3.76706 51.2841 1.29661 44.4528 0.314325C41.4904 -0.11168 36.2425 -0.103439 33.3097 0.3316ZM65.3252 15.9814C65.2724 16.2994 65.2006 16.7734 65.1655 17.0349C65.1304 17.2964 64.9549 17.9382 64.7754 18.4612C64.3908 19.5824 64.3763 19.7012 64.6408 19.5682C64.7505 19.5131 64.718 19.5678 64.5685 19.6898C64.419 19.8118 64.1008 20.3699 63.861 20.9298C63.6214 21.4897 63.3312 22.0549 63.2162 22.1856C62.6669 22.8105 62.1891 23.4535 62.274 23.4535C62.3259 23.4535 62.0631 23.721 61.69 24.0478C61.3168 24.3748 60.9397 24.719 60.852 24.8131C60.442 25.2524 58.9576 26.0274 58.3783 26.1046C58.0235 26.1518 57.6999 26.2446 57.6587 26.3105C57.5185 26.536 58.6802 28.821 59.2585 29.457C59.5759 29.8062 60.1542 30.2772 60.5433 30.5037C60.9324 30.7303 61.2508 30.9617 61.2508 31.0179C61.2508 31.3 60.4924 32.1657 60.1762 32.2446C59.9776 32.294 59.815 32.4036 59.815 32.488C59.815 32.5723 59.5638 32.7456 59.2567 32.8731C58.9496 33.0006 58.698 33.1619 58.6976 33.2318C58.6971 33.3017 58.3846 33.3765 58.0028 33.3982L57.309 33.4377L57.2178 31.8926C57.074 29.4586 56.6958 28.6947 55.2825 27.9844C53.2336 26.9544 52.2799 25.6325 52.3404 23.906C52.3632 23.253 52.2958 22.7734 52.1486 22.5422C51.8246 22.0335 51.5065 22.0807 51.615 22.6214C51.7115 23.1028 51.4567 23.9289 51.2119 23.9289C51.126 23.9289 51.1715 23.7288 51.3128 23.4842C51.6067 22.9753 51.4912 22.1856 51.1227 22.1856C50.9828 22.1856 50.9277 22.0918 50.9832 21.9479C51.0338 21.8171 51.1892 21.7102 51.3285 21.7102C51.4679 21.7102 51.772 21.5292 52.0044 21.3079C52.8974 20.4581 54.2258 20.7602 54.4709 21.8688C54.6163 22.5268 54.8092 22.5856 55.1361 22.0718C55.8372 20.9696 56.6146 20.2054 57.8848 19.3698C59.4883 18.3151 60.4951 17.4209 61.4193 16.231C61.7851 15.7599 62.1504 15.4147 62.2309 15.4641C62.4361 15.5901 62.2301 16.6177 61.8766 17.233C61.5271 17.8412 61.6846 17.9053 62.1971 17.3633C62.3973 17.1517 62.6472 17.0114 62.7526 17.0515C62.8579 17.0918 63.4426 16.7046 64.0516 16.1911C64.6609 15.6778 65.2181 15.2904 65.2902 15.3305C65.3622 15.3705 65.378 15.6635 65.3252 15.9814ZM14.3793 16.3249C15.0355 16.8723 15.5664 17.2094 15.6248 17.1157C15.6851 17.0187 15.8795 17.1141 16.1027 17.3501C16.6473 17.926 16.7919 17.8387 16.4237 17.1561C16.248 16.8304 16.1067 16.2778 16.1097 15.9279L16.115 15.2916L16.628 15.9255C17.8025 17.3769 18.6625 18.165 20.1723 19.1736C21.769 20.2402 22.9714 21.3632 23.3123 22.1067C23.5587 22.6441 23.703 22.6048 23.9237 21.9403C24.1621 21.2228 24.6632 20.7593 25.2001 20.7593C25.4318 20.7593 25.958 20.9808 26.3695 21.2517C26.9589 21.6395 27.1654 21.7048 27.3415 21.5596C27.5238 21.4094 27.5493 21.4355 27.4795 21.7011C27.3941 22.0252 27.2671 22.0861 26.774 22.039C26.3307 21.9967 25.9989 22.9511 26.1042 23.9655C26.1804 24.6992 26.1334 24.983 25.8424 25.5436C25.3716 26.4501 24.3526 27.391 23.2371 27.9486C21.8239 28.6553 21.3356 29.7353 21.3533 32.1161L21.363 33.4404L20.648 33.4134C20.2548 33.3987 19.933 33.3383 19.933 33.2792C19.933 33.1117 19.129 32.7893 18.9639 32.8906C18.8827 32.9405 18.8163 32.8725 18.8163 32.7397C18.8163 32.6069 18.6547 32.4153 18.4573 32.3139C18.0435 32.1012 17.3947 31.3805 17.3863 31.124C17.3831 31.0281 17.7342 30.7312 18.1667 30.4642C19.1084 29.8826 19.9461 28.7904 20.4446 27.4948C20.8511 26.4382 20.8847 26.2303 20.6509 26.2198C19.9998 26.1907 19.1302 25.8919 18.5583 25.5011C18.186 25.2466 17.8499 25.0383 17.8114 25.0383C17.7283 25.0383 16.2638 23.5956 16.2638 23.5137C16.2638 23.4348 15.7773 22.839 15.3368 22.3788C15.1342 22.1669 15.0007 21.9612 15.0404 21.9219C15.0801 21.8824 14.8332 21.3452 14.4918 20.728C14.1502 20.1109 13.8709 19.5207 13.8709 19.4164C13.8709 19.3121 13.7323 18.8048 13.5627 18.2893C13.2424 17.3143 12.9567 15.3708 13.1337 15.3708C13.1897 15.3708 13.7501 15.8001 14.3793 16.3249ZM12.3047 16.0729C12.3398 16.3718 12.3117 16.5816 12.2423 16.539C12.1174 16.4623 12.0584 15.5293 12.1785 15.5293C12.2126 15.5293 12.2694 15.7738 12.3047 16.0729ZM66.3557 15.816C66.3557 15.9737 66.2534 16.241 66.1284 16.4103C65.9271 16.6827 65.9224 16.6499 66.0877 16.1236C66.2954 15.4616 66.3557 15.3925 66.3557 15.816ZM49.897 17.8912C49.782 18.0739 49.5981 18.2235 49.4881 18.2235C49.3671 18.2235 49.4245 18.0679 49.6341 17.8284C50.0366 17.3686 50.2008 17.4078 49.897 17.8912ZM28.7981 17.816C29.0497 18.0658 29.091 18.2235 28.905 18.2235C28.8383 18.2235 28.6941 18.0809 28.5845 17.9065C28.3529 17.5379 28.4689 17.4888 28.7981 17.816ZM27.9225 18.2235C28.003 18.2235 28.0689 18.4018 28.0689 18.6197C28.0689 18.9063 28.1546 19.0159 28.3786 19.0159C28.8182 19.0159 28.9273 19.2801 28.5303 19.3833C28.0664 19.5037 27.7135 19.3386 27.8241 19.0525C27.8778 18.9131 27.7816 18.7192 27.5939 18.5885C27.2123 18.3229 27.1614 17.9893 27.5237 18.1273C27.6625 18.1802 27.8419 18.2235 27.9225 18.2235ZM51.041 18.382C50.947 18.5563 50.7926 18.699 50.6977 18.699C50.6028 18.699 50.5629 18.8419 50.6088 19.0166C50.672 19.257 50.5961 19.3583 50.2966 19.4329C50.079 19.4871 49.824 19.4551 49.73 19.3617C49.6084 19.241 49.6837 19.1609 49.9905 19.0844C50.2627 19.0166 50.3914 18.8979 50.3394 18.763C50.2939 18.6454 50.4133 18.4402 50.6045 18.307C51.081 17.9755 51.2449 18.0035 51.041 18.382ZM65.1719 19.1386C64.8971 19.3999 64.8936 19.3966 65.0954 19.0627C65.2117 18.8706 65.3411 18.7475 65.3831 18.7891C65.425 18.8308 65.3299 18.988 65.1719 19.1386ZM27.6471 20.0437C27.8773 20.6399 26.6636 20.6554 26.1683 20.0626C25.9783 19.835 26.0399 19.8083 26.7562 19.8083C27.3164 19.8083 27.5835 19.8789 27.6471 20.0437ZM52.31 20.0548C51.8235 20.6371 50.7219 20.748 50.7219 20.2147C50.7219 19.925 50.9695 19.8361 51.8182 19.8209C52.4318 19.8099 52.4909 19.838 52.31 20.0548ZM29.3452 20.2592C29.3452 20.6218 28.388 21.1271 27.9892 20.9751C27.6274 20.8371 27.7025 20.4583 28.1088 20.3722C29.4118 20.096 29.3452 20.102 29.3452 20.2592ZM50.6821 20.5084C50.8668 20.6917 50.5436 21.0757 50.2084 21.0712C49.8334 21.0659 49.5135 20.868 49.1669 20.4264C48.9874 20.1979 49.049 20.1855 49.7852 20.3011C50.2349 20.3718 50.6383 20.465 50.6821 20.5084ZM27.1754 23.5861C27.2386 23.6876 27.2225 23.7705 27.1398 23.7705C26.9685 23.7705 26.7901 23.2115 26.8112 22.7403C26.8198 22.5489 26.872 22.617 26.9431 22.9126C27.0079 23.1817 27.1124 23.4849 27.1754 23.5861ZM43.4026 23.5006C46.3652 24.2721 48.8339 25.6886 51.0459 27.8861C54.3609 31.1794 55.9896 35.0938 55.9843 39.7552C55.9792 44.1767 54.3274 48.1738 51.2005 51.3318C48.9966 53.5575 46.4418 55.0326 43.3039 55.8911C41.8844 56.2794 41.4447 56.3269 39.3157 56.322C36.6576 56.3157 35.1416 56.0374 32.8803 55.1402C27.1627 52.8715 22.9854 47.2429 22.5111 41.1679C22.1235 36.2018 23.6983 31.7153 27.062 28.2039C29.6095 25.5444 32.649 23.9068 36.3094 23.2215C38.2129 22.8652 41.4524 22.9926 43.4026 23.5006ZM40.7111 24.0437C40.2511 24.1003 40.2031 24.1515 40.2896 24.4938C40.4038 24.9455 40.112 25.013 39.6253 24.6472C39.1888 24.3191 38.8138 24.35 38.5415 24.7363C38.3405 25.0214 38.1763 25.0604 37.3758 25.0136C36.6297 24.9699 36.4442 25.0065 36.4442 25.1968C36.4442 25.3288 36.586 25.4345 36.7632 25.4345C36.9926 25.4345 37.0965 25.5569 37.1327 25.8704C37.1604 26.11 37.2174 26.3062 37.2592 26.3062C37.301 26.3062 37.7324 26.0147 38.2178 25.6585C39.0828 25.0237 39.1068 25.0166 39.4281 25.3019C39.9474 25.7632 40.5121 26.7387 40.5121 27.1747C40.5121 27.6522 40.27 27.6959 40.0355 27.2607C39.8002 26.824 39.2769 26.5786 38.8223 26.692C38.2626 26.8316 38.3276 27.3506 38.9441 27.6674C39.3741 27.8882 39.4106 27.9492 39.1871 28.0736C38.9175 28.2234 38.0857 27.9048 37.879 27.5726C37.6984 27.2823 37.4701 27.5746 37.6365 27.8833C37.7746 28.1399 37.706 28.1857 37.0386 28.2822C35.5535 28.4971 34.24 29.5757 33.7947 30.9457L33.5256 31.7739L33.5093 31.187C33.4715 29.835 32.8481 29.3794 31.7965 29.9352C30.6704 30.5304 29.9833 31.3273 29.9833 32.0379C29.9833 32.6399 30.361 32.7716 31.0421 32.4072C31.7035 32.0533 31.9126 32.2028 31.4463 32.696C31.0271 33.1392 31.0161 33.2397 31.3791 33.3112C31.6106 33.3567 31.6583 33.5415 31.6583 34.3925V35.419L32.2964 35.3873C35.1472 35.2453 35.1706 35.2471 35.7461 35.6384C36.0516 35.8463 36.4635 36.2617 36.6614 36.5617C36.8593 36.8617 37.2633 37.2075 37.5593 37.3304C37.8552 37.4533 38.1324 37.6101 38.1752 37.6787C38.218 37.7475 38.0798 38.1586 37.8684 38.5924C37.2919 39.7751 37.3279 39.8647 38.4706 40.088C40.2121 40.4284 41.3098 41.1172 41.3098 41.8697C41.3098 42.0228 40.8168 42.6407 40.2141 43.2429C39.3749 44.0816 39.0919 44.481 39.0043 44.95C38.8631 45.7055 38.5632 46.0511 37.8451 46.2866C37.4618 46.4123 37.2259 46.6224 37.0807 46.9678C36.7795 47.684 36.1205 48.335 35.6941 48.3379C35.2327 48.341 35.0733 48.4583 34.7477 49.0347C34.5965 49.3027 34.2621 49.5698 33.9501 49.6718L33.4131 49.8474L33.4573 51.0606C33.5018 52.2848 33.4058 52.5345 32.9567 52.3634C32.5421 52.2054 32.3409 51.2778 32.4521 50.0364C32.5322 49.1411 32.4828 48.6155 32.2258 47.6348C31.9107 46.4329 31.9086 46.3628 32.1763 45.9906C32.3301 45.7766 32.5812 45.4143 32.7343 45.1856C33.2115 44.4723 33.0202 43.1055 32.443 43.1055C32.3106 43.1055 32.0286 42.9331 31.8164 42.7221C31.4471 42.3554 31.4412 42.3175 31.6795 41.8432C31.9916 41.2216 31.8655 40.6768 31.2486 39.9786C30.5801 39.2222 30.638 38.7681 31.5144 37.8976C32.5493 36.8693 33.1738 36.1457 33.1738 35.9744C33.1738 35.8937 32.8259 35.8427 32.4008 35.8611C31.457 35.9019 31.1595 35.6832 31.0169 34.8442C30.9573 34.4944 30.8096 34.1705 30.6885 34.1244C30.5675 34.0783 30.318 33.7989 30.1343 33.5036C29.9506 33.2083 29.5902 32.8434 29.3335 32.6928C28.7554 32.3535 28.7415 31.9931 29.2638 30.8783C29.9177 29.4829 29.6995 28.7028 28.9896 29.8981C28.5242 30.6816 28.4322 30.2883 28.8704 29.3889C29.0974 28.9231 29.6586 28.2963 30.4658 27.607C31.1509 27.0224 31.7173 26.4631 31.7247 26.3644C31.732 26.2655 31.5766 26.1426 31.3791 26.0911C30.8699 25.9585 29.5525 26.8626 27.9705 28.4304C25.0486 31.326 23.5118 34.7945 23.3292 38.9057C23.1275 43.4406 24.5419 47.2653 27.6053 50.469C29.1209 52.054 30.3137 52.9269 32.2784 53.8891C34.5418 54.9974 35.9523 55.3359 38.6776 55.425C40.6528 55.4896 41.1164 55.4519 42.6891 55.0988C45.7836 54.404 48.3073 53.0056 50.5664 50.7334C51.8843 49.4078 52.7076 48.3008 52.5166 48.1111C52.2387 47.8348 51.7201 48.1103 50.9832 48.9254C49.8294 50.202 48.4423 51.4976 48.225 51.5017C48.0227 51.5055 47.6909 50.6903 47.6909 50.1896C47.6909 50.0143 48.0876 49.4845 48.5779 49.0053C49.1911 48.4057 49.4337 48.0585 49.3643 47.8802C49.0555 47.0874 49.0874 46.7476 49.5015 46.4242C49.7298 46.2457 50.0045 45.8004 50.1121 45.4346C50.2196 45.0688 50.3512 44.7339 50.4043 44.6904C51.077 44.1396 51.2185 43.076 50.6931 42.5204L50.3453 42.1526L50.7728 41.7091C51.0081 41.4652 51.2005 41.1064 51.2005 40.9116C51.2005 40.6211 51.123 40.566 50.7676 40.6034C50.4407 40.6378 50.3194 40.5712 50.2733 40.332C50.1728 39.8097 50.0408 39.7772 49.0553 40.0328C47.8 40.3585 47.4984 40.211 47.0648 39.0594C46.8789 38.5661 46.5361 37.9139 46.3028 37.6101C45.9524 37.1537 45.9184 37.0329 46.1068 36.9143C46.2323 36.8356 46.4265 36.77 46.5383 36.7685C46.8843 36.7644 47.0864 35.9482 46.9792 34.9867C46.8644 33.955 47.0397 33.4846 47.5669 33.4095C47.7624 33.3816 48.0106 33.182 48.1186 32.9662C48.366 32.4711 50.017 31.8089 50.4428 32.0338C50.5962 32.115 50.7219 32.2839 50.7219 32.4093C50.7219 32.5346 51.0472 32.9603 51.4448 33.3553L52.1676 34.0734L52.8008 33.7524C53.4103 33.4435 53.6061 33.0869 53.2768 32.8847C53.1905 32.8318 52.8135 32.7367 52.4393 32.6735C51.9173 32.5855 51.7477 32.4817 51.7107 32.2276C51.6844 32.0455 51.4918 31.8192 51.283 31.7248C51.0743 31.6303 50.7414 31.3352 50.5434 31.0691C50.2167 30.63 49.6052 30.3986 49.6052 30.7138C49.6052 30.9425 48.962 31.5362 48.7144 31.5362C48.4451 31.5362 47.6909 30.8453 47.6909 30.5989C47.6909 30.5113 47.8799 30.2655 48.1109 30.0526C48.6741 29.534 48.5294 28.9881 47.6636 28.3651C46.857 27.7845 47.0403 27.7295 47.8724 28.3023C48.474 28.7166 48.8076 28.7055 48.8076 28.2712C48.8076 27.9639 48.362 27.5286 47.8021 27.2891C47.5437 27.1785 47.2852 26.8991 47.1898 26.627C47.0155 26.1301 46.3193 25.6257 45.5636 25.4485C45.3147 25.3902 44.9357 25.1543 44.7213 24.9244L44.3312 24.5063L43.2388 25.0314C42.6378 25.3201 42.0658 25.507 41.9673 25.4464C41.8689 25.386 41.7884 25.0632 41.7884 24.729C41.7884 24.321 41.7054 24.0896 41.536 24.0251C41.3972 23.9722 41.2716 23.9404 41.2568 23.9543C41.2421 23.9682 40.9965 24.0085 40.7111 24.0437Z" fill="#D4C5BE"/>
</svg>
