<svg xmlns="http://www.w3.org/2000/svg" aria-hidden="true" overflow="hidden" style="position:absolute;width:0;height:0">
  <defs>
    <symbol id="icon-account" viewBox="0 0 32 32">
        <path stroke-linejoin="round" stroke-linecap="round" stroke-miterlimit="4" stroke-width="1.7143" d="M22.351 28c1.809-0.331 3.244-0.834 3.911-1.511 0.094-0.856 0-2.205 0-2.205 0-1.169-0.549-2.291-1.527-3.118-3.088-2.612-13.411-2.612-16.499 0-0.978 0.827-1.527 1.949-1.527 3.118 0 0-0.094 1.349 0 2.205 0.667 0.677 2.101 1.18 3.911 1.511M21.699 9.292c0 2.922-2.334 5.292-5.214 5.292s-5.214-2.369-5.214-5.292c0-2.922 2.334-5.292 5.214-5.292s5.214 2.369 5.214 5.292z"></path>
    </symbol>
    <symbol id="icon-burger-menu" viewBox="0 0 32 32">
      <path d="M3.2 7.2h25.6v1.6H3.2V7.2zm0 8h25.6v1.6H3.2v-1.6zm0 8h25.6v1.6H3.2v-1.6z"/>
    </symbol>
    <symbol id="icon-chevron" viewBox="0 0 32 32">
      <path d="m8 14 8 8 8-8z"/>
      <path d="M9.414 12.586a2 2 0 1 0-2.828 2.828l2.828-2.828zM16 22l-1.414 1.414a2 2 0 0 0 2.828 0L16 22zm9.414-6.586a2 2 0 1 0-2.828-2.828l2.828 2.828zm-18.828 0 8 8 2.828-2.828-8-8-2.828 2.828zm10.828 8 8-8-2.828-2.828-8 8 2.828 2.828z"/>
    </symbol>
    <symbol id="icon-logo" viewBox="0 0 33 32">
      <path d="M14.025.14c-3.067.455-6.028 1.764-8.284 3.662C2.579 6.463.638 10.006.093 14.108c-.128.96-.124 2.827.007 3.821a15.96 15.96 0 0 0 4.562 9.27c2.514 2.516 5.696 4.104 9.373 4.677 1.055.164 3.666.166 4.745.003 3.166-.479 6.175-1.844 8.486-3.85 3.587-3.114 5.574-7.408 5.576-12.049.002-3.432-1.102-6.699-3.226-9.546-.645-.864-2.268-2.478-3.134-3.115C24.128 1.587 21.593.546 18.717.133 17.47-.046 15.26-.043 14.025.14zm13.48 6.589c-.022.134-.052.333-.067.444s-.089.38-.164.601c-.162.472-.168.522-.057.466.046-.023.032 0-.03.051s-.197.286-.298.522c-.101.236-.223.474-.271.529-.231.263-.432.534-.397.534.022 0-.089.113-.246.25s-.316.283-.353.322c-.173.185-.798.511-1.042.544-.149.02-.286.059-.303.087-.059.095.43 1.057.674 1.325.134.147.377.345.541.441s.298.193.298.216c0 .119-.319.483-.452.517-.084.021-.152.067-.152.102s-.106.108-.235.162-.235.122-.235.151c0 .029-.132.061-.293.07l-.292.017-.038-.651c-.061-1.025-.22-1.346-.815-1.646-.863-.434-1.264-.99-1.239-1.717.01-.275-.019-.477-.081-.574-.136-.214-.27-.194-.225.033.041.203-.067.551-.17.551-.036 0-.017-.084.042-.187.124-.214.075-.547-.08-.547-.059 0-.082-.04-.059-.1.021-.055.087-.1.145-.1s.187-.076.285-.169c.376-.358.935-.231 1.039.236.061.277.142.302.28.085.295-.464.623-.786 1.157-1.138.675-.444 1.099-.821 1.488-1.322.154-.198.308-.344.342-.323.086.053 0 .486-.149.745-.147.256-.081.283.135.055.084-.089.19-.148.234-.131s.291-.146.547-.362c.257-.216.491-.379.522-.362s.037.14.015.274zm-21.451.145c.276.23.5.372.524.333.025-.041.107-.001.201.099.229.242.29.206.135-.082a1.277 1.277 0 0 1-.132-.517l.002-.268.216.267c.495.611.857.943 1.492 1.368.672.449 1.179.922 1.322 1.235.104.226.165.21.257-.07.1-.302.311-.497.537-.497.098 0 .319.093.492.207.248.163.335.191.409.13.077-.063.088-.052.058.06-.036.136-.089.162-.297.142-.187-.018-.326.384-.282.811.032.309.012.428-.11.664-.198.382-.627.778-1.097 1.013-.595.298-.801.752-.793 1.755l.004.558-.301-.011c-.166-.006-.301-.032-.301-.056 0-.071-.339-.206-.408-.164-.034.021-.062-.008-.062-.064s-.068-.137-.151-.179c-.174-.09-.447-.393-.451-.501-.001-.04.146-.165.329-.278.396-.245.749-.705.959-1.25.171-.445.185-.532.087-.537a1.89 1.89 0 0 1-.881-.303 2.41 2.41 0 0 0-.314-.195c-.035 0-.652-.607-.652-.642 0-.033-.205-.284-.39-.478-.085-.089-.142-.176-.125-.192s-.087-.243-.231-.503c-.144-.26-.261-.508-.261-.552s-.058-.258-.13-.475c-.135-.411-.255-1.229-.181-1.229.024 0 .26.181.524.402zm-.873-.106c.015.126.003.214-.026.196-.053-.032-.077-.425-.027-.425.014 0 .038.103.053.229zm22.758-.109a.508.508 0 0 1-.096.25c-.085.115-.087.101-.017-.121.087-.279.113-.308.113-.13zm-6.93.874c-.048.077-.126.14-.172.14-.051 0-.027-.066.061-.166.169-.194.239-.177.111.026zm-8.883-.032c.106.105.123.172.045.172-.028 0-.089-.06-.135-.133-.098-.155-.049-.176.09-.038zm-.369.172c.034 0 .062.075.062.167 0 .121.036.167.13.167.185 0 .231.111.064.155-.195.051-.344-.019-.297-.139.023-.059-.018-.14-.097-.195-.161-.112-.182-.252-.03-.194.058.022.134.04.168.04zm9.734.067c-.04.073-.105.133-.145.133s-.057.06-.037.134c.027.101-.005.144-.131.175-.092.023-.199.009-.239-.03-.051-.051-.02-.085.11-.117.115-.029.169-.079.147-.135-.019-.05.031-.136.112-.192.201-.14.27-.128.184.032zm5.95.318c-.116.11-.117.109-.032-.032.049-.081.103-.133.121-.115s-.022.084-.089.147zm-15.8.381c.097.251-.414.258-.623.008-.08-.096-.054-.107.248-.107.236 0 .348.03.375.099zm10.384.005c-.205.245-.669.292-.669.067 0-.122.104-.159.462-.166.258-.005.283.007.207.098zm-9.669.086c0 .153-.403.365-.571.301-.152-.058-.121-.218.05-.254.549-.116.521-.114.521-.048zm8.984.105c.078.077-.058.239-.199.237-.158-.002-.293-.086-.439-.271-.076-.096-.05-.101.26-.053.189.03.359.069.378.087zm-9.898 1.296c.027.043.02.078-.015.078-.072 0-.147-.235-.138-.434.004-.081.026-.052.056.073.027.113.071.241.098.284zm6.833-.036a6.89 6.89 0 0 1 3.218 1.847c1.396 1.387 2.082 3.035 2.079 4.998-.002 1.862-.698 3.545-2.014 4.874-.928.937-2.004 1.558-3.325 1.92-.598.163-.783.183-1.679.181-1.119-.003-1.758-.12-2.71-.498-2.407-.955-4.166-3.325-4.366-5.883-.163-2.091.5-3.98 1.916-5.459 1.073-1.12 2.352-1.809 3.894-2.098.801-.15 2.165-.096 2.987.118zm-1.133.229c-.194.024-.214.045-.177.19.048.19-.075.219-.28.065-.184-.138-.342-.125-.456.038-.085.12-.154.136-.491.117-.314-.018-.392-.003-.392.077 0 .056.06.1.134.1.097 0 .14.052.156.184.012.101.036.184.053.184s.199-.123.404-.273c.364-.267.374-.27.51-.15.219.194.456.605.456.789 0 .201-.102.219-.201.036s-.319-.287-.511-.239c-.236.059-.208.277.051.411.181.093.196.119.102.171-.114.063-.464-.071-.551-.211-.076-.122-.172.001-.102.131.058.108.029.127-.252.168-.625.09-1.178.545-1.366 1.121l-.113.349-.007-.247c-.016-.569-.278-.761-.721-.527-.474.251-.763.586-.763.885 0 .253.159.309.446.155.278-.149.367-.086.17.122-.177.187-.181.229-.028.259.097.019.118.097.118.455v.432l.269-.013c1.2-.06 1.21-.059 1.453.106.129.088.302.262.385.389s.253.272.378.324c.125.052.241.118.259.147s-.04.202-.129.385c-.243.498-.228.536.254.63.733.143 1.195.433 1.195.75 0 .064-.208.325-.461.578-.353.353-.473.521-.509.719-.059.318-.186.464-.488.563a.481.481 0 0 0-.322.287c-.127.302-.404.576-.584.577-.194.001-.261.051-.398.293a.652.652 0 0 1-.336.268l-.226.074.019.511c.019.515-.022.621-.211.549-.175-.067-.259-.457-.212-.98.034-.377.013-.598-.095-1.011-.133-.506-.134-.536-.021-.692.065-.09.17-.243.235-.339.201-.3.12-.876-.123-.876-.056 0-.174-.073-.264-.161-.155-.154-.158-.17-.058-.37.131-.262.078-.491-.181-.785-.281-.318-.257-.51.112-.876.436-.433.699-.738.699-.81 0-.034-.146-.055-.325-.048-.397.017-.523-.075-.583-.428-.025-.147-.087-.284-.138-.303s-.156-.137-.233-.261-.229-.278-.337-.341c-.243-.143-.249-.295-.029-.764.275-.588.183-.916-.115-.413-.196.33-.235.164-.05-.214.096-.196.332-.46.672-.75.288-.246.527-.482.53-.523s-.062-.093-.146-.115c-.214-.056-.769.325-1.435.985-1.23 1.219-1.877 2.68-1.954 4.411-.085 1.909.511 3.52 1.8 4.869.638.667 1.14 1.035 1.968 1.44.953.467 1.547.609 2.694.647.832.027 1.027.011 1.689-.137 1.303-.293 2.366-.881 3.317-1.838.555-.558.902-1.024.821-1.104-.117-.116-.335 0-.646.343-.486.538-1.07 1.083-1.161 1.085-.085.002-.225-.342-.225-.552 0-.074.167-.297.373-.499.258-.252.36-.399.331-.474-.13-.334-.117-.477.058-.613.096-.075.212-.263.257-.417s.101-.295.123-.313c.283-.232.343-.68.122-.914l-.146-.155.18-.187c.099-.103.18-.254.18-.336 0-.122-.033-.146-.182-.13-.138.014-.189-.014-.208-.114-.042-.22-.098-.234-.513-.126-.529.137-.656.075-.838-.41a2.88 2.88 0 0 0-.321-.61c-.148-.192-.162-.243-.083-.293a.422.422 0 0 1 .182-.061c.146-.002.231-.345.186-.75-.048-.434.025-.632.247-.664.082-.012.187-.096.232-.187.104-.208.799-.487.979-.393.065.034.118.105.118.158s.137.232.304.398l.304.302.267-.135c.257-.13.339-.28.2-.365a1.667 1.667 0 0 0-.353-.089c-.22-.037-.291-.081-.307-.188-.011-.077-.092-.172-.18-.212s-.228-.164-.311-.276c-.138-.185-.395-.282-.395-.15 0 .096-.271.346-.375.346-.113 0-.431-.291-.431-.395 0-.037.08-.14.177-.23.237-.218.176-.448-.188-.711-.34-.244-.262-.268.088-.026.253.174.394.17.394-.013 0-.129-.188-.313-.423-.414a.515.515 0 0 1-.258-.279c-.073-.209-.367-.422-.685-.496a.862.862 0 0 1-.355-.221l-.164-.176-.46.221c-.253.122-.494.2-.535.175s-.075-.161-.075-.302c0-.172-.035-.269-.106-.296-.058-.022-.111-.036-.118-.03s-.11.023-.23.038z"/>
    </symbol>
    <symbol id="icon-facebook" viewBox="0 0 32 32">
      <path d="M20.536 28v-9.288h3.111l0.465-3.611h-3.576v-2.304c0-1.045 0.291-1.759 1.789-1.759h1.912v-3.229c-0.926-0.098-1.856-0.146-2.787-0.143-2.756 0-4.643 1.683-4.643 4.773v2.661h-3.117v3.611h3.117v9.288h-11.475c-0.354 0-0.693-0.14-0.943-0.39s-0.391-0.589-0.391-0.943v-21.333c0-0.354 0.14-0.693 0.391-0.943s0.589-0.391 0.943-0.391h21.333c0.354 0 0.693 0.14 0.943 0.391s0.39 0.589 0.39 0.943v21.333c0 0.354-0.14 0.693-0.39 0.943s-0.589 0.39-0.943 0.39h-6.131z"></path>
    </symbol>
    <symbol id="icon-instagram" viewBox="0 0 32 32">
      <path d="M16 4c3.26 0 3.667 0.012 4.946 0.072 1.278 0.060 2.148 0.26 2.914 0.558 0.792 0.305 1.459 0.718 2.126 1.384 0.61 0.6 1.082 1.325 1.384 2.126 0.296 0.764 0.498 1.636 0.558 2.914 0.056 1.279 0.072 1.686 0.072 4.946s-0.012 3.667-0.072 4.946c-0.060 1.278-0.262 2.148-0.558 2.914-0.3 0.801-0.773 1.527-1.384 2.126-0.6 0.61-1.326 1.082-2.126 1.384-0.764 0.296-1.636 0.498-2.914 0.558-1.279 0.056-1.686 0.072-4.946 0.072s-3.667-0.012-4.946-0.072c-1.278-0.060-2.148-0.262-2.914-0.558-0.801-0.301-1.527-0.773-2.126-1.384-0.61-0.6-1.082-1.326-1.384-2.126-0.298-0.764-0.498-1.636-0.558-2.914-0.056-1.279-0.072-1.686-0.072-4.946s0.012-3.667 0.072-4.946 0.26-2.148 0.558-2.914c0.3-0.801 0.773-1.527 1.384-2.126 0.6-0.611 1.325-1.083 2.126-1.384 0.766-0.298 1.634-0.498 2.914-0.558 1.279-0.056 1.686-0.072 4.946-0.072zM16 10c-1.591 0-3.117 0.632-4.243 1.757s-1.757 2.651-1.757 4.243c0 1.591 0.632 3.117 1.757 4.243s2.651 1.757 4.243 1.757c1.591 0 3.117-0.632 4.243-1.757s1.757-2.651 1.757-4.243c0-1.591-0.632-3.117-1.757-4.243s-2.651-1.757-4.243-1.757zM23.8 9.7c0-0.398-0.158-0.779-0.439-1.061s-0.663-0.439-1.061-0.439-0.779 0.158-1.061 0.439c-0.281 0.281-0.439 0.663-0.439 1.061s0.158 0.779 0.439 1.061c0.281 0.281 0.663 0.439 1.061 0.439s0.779-0.158 1.061-0.439c0.281-0.281 0.439-0.663 0.439-1.061zM16 12.4c0.955 0 1.87 0.379 2.546 1.054s1.054 1.591 1.054 2.546-0.379 1.87-1.054 2.546c-0.675 0.675-1.591 1.054-2.546 1.054s-1.87-0.379-2.546-1.054c-0.675-0.675-1.054-1.591-1.054-2.546s0.379-1.87 1.054-2.546c0.675-0.675 1.591-1.054 2.546-1.054z"></path>
    </symbol>
    <symbol id="icon-pencil-line" viewBox="0 0 32 32">
      <path d="M20.971 12.915l-1.885-1.885-12.419 12.419v1.885h1.885l12.419-12.419zM22.856 11.029l1.885-1.885-1.885-1.885-1.885 1.885 1.885 1.885zM9.656 28h-5.656v-5.657l17.913-17.913c0.25-0.25 0.589-0.39 0.943-0.39s0.693 0.14 0.943 0.39l3.772 3.772c0.25 0.25 0.39 0.589 0.39 0.943s-0.14 0.693-0.39 0.943l-17.915 17.913z"></path>
    </symbol>
  </defs>
</svg>
